# xmcd
#
# Track frame offsets:
#	150
#	16275
#	32121
#	60422
#	71545
#	86457
#	102762
#	125087
#	141554
#	162059
#
# Disc length: 2318 seconds
#
# Revision: 1
# Processed by: cddbd v1.5.2PL0 Copyright (c) Steve Scherf et al.
# Submitted via: audiograbber 1.83.01
#
DISCID=81090c0a
DTITLE=James Cotton - High Compression
DYEAR=1900
DGENRE=
TTITLE0=Diggin' My Potatoes
TTITLE1=Ying Yang
TTITLE2=23 Hours Too Long
TTITLE3=No More Doggin'
TTITLE4=No Cuttin' Loose
TTITLE5=Ain't Doin' Too Bad
TTITLE6=Sunny Road
TTITLE7=Superharp
TTITLE8=Easy Loving
TTITLE9=High Compression
EXTD=
EXTT0=
EXTT1=
EXTT2=
EXTT3=
EXTT4=
EXTT5=
EXTT6=
EXTT7=
EXTT8=
EXTT9=
PLAYORDER=
